<?xml version="1.0" standalone="no"?>
<!DOCTYPE svg PUBLIC "-//W3C//DTD SVG 20010904//EN"
 "http://www.w3.org/TR/2001/REC-SVG-20010904/DTD/svg10.dtd">
<svg version="1.0" xmlns="http://www.w3.org/2000/svg"
 width="496.000000pt" height="496.000000pt" viewBox="0 0 496.000000 496.000000"
 preserveAspectRatio="xMidYMid meet">
<metadata>
Created by potrace 1.14, written by Peter Selinger 2001-2017
</metadata>
<g transform="translate(0.000000,496.000000) scale(0.100000,-0.100000)"
fill="#000000" stroke="none">
<path d="M2394 4464 c-64 -23 -102 -67 -214 -244 -58 -91 -108 -169 -113 -175
-4 -5 -20 -30 -36 -55 -240 -379 -303 -478 -351 -551 -31 -47 -59 -90 -61 -95
-2 -6 -98 -157 -214 -337 -115 -180 -217 -339 -225 -352 -18 -30 -342 -538
-624 -980 -621 -971 -550 -851 -550 -945 0 -64 4 -83 27 -122 31 -53 79 -94
134 -114 56 -20 4570 -20 4626 0 98 36 160 121 163 225 0 38 -5 80 -13 100
-17 40 -394 634 -405 639 -5 2 -8 8 -8 13 0 8 -47 87 -60 99 -3 3 -10 14 -17
25 -58 97 -85 139 -170 272 -217 337 -509 795 -533 833 -14 22 -128 203 -255
401 -126 198 -237 371 -245 384 -114 187 -573 895 -597 921 -57 63 -174 89
-259 58z m147 -792 c177 -275 265 -414 277 -434 7 -13 82 -131 166 -263 l154
-240 -328 -3 -329 -2 -248 -250 -248 -250 -148 148 -148 148 70 110 c38 60 92
145 120 189 28 44 142 224 255 400 112 176 235 368 272 428 38 59 71 107 74
107 3 0 30 -40 61 -88z"/>
</g>
</svg>
